<svg id="Solid" height="512" viewBox="0 0 512 512" width="512" xmlns="http://www.w3.org/2000/svg"><path d="m256 225.151-113.127 62.849h226.255z"/><path d="m256 208a8 8 0 0 1 3.885 1.007l49.492 27.5-11.777-15.707a8 8 0 0 1 6.4-12.8h24.454l-30.964-43.35a8 8 0 0 1 6.51-12.65h11.5l-35.5-76.909-35.5 76.909h11.5a8 8 0 0 1 6.51 12.65l-30.965 43.35z"/><path d="m351.716 474.19q.119 2.892.19 5.81h123.627l-14.666-32h-99.627z"/><path d="m377.354 274.268 26.531 14.739a8 8 0 0 1 3.387 3.66l27.195 59.333h37.533l-38.4-51.2a8 8 0 0 1 6.4-12.8h24.454l-30.964-43.351a8 8 0 0 1 6.51-12.649h11.5l-35.5-76.909-35.5 76.909h11.5a8 8 0 0 1 6.51 12.649z"/><path d="m128.481 386.734a8 8 0 0 1 4.548-10.162l71.727-28.69a75.979 75.979 0 0 1 102.488 0l71.727 28.69a8 8 0 0 1 4.548 10.162l-16.461 45.266h86.475l-58.666-128h-277.733l-58.667 128h86.475z"/><path d="m326.9 372.976c1.347 2.353 2.651 4.785 3.9 7.316 7.889 15.98 13.727 35.48 17.26 57.137l17.774-48.879z"/><path d="m160.284 474.19-9.524-26.19h-99.627l-14.666 32h123.627q.068-2.92.19-5.81z"/><path d="m185.1 372.976-38.933 15.574 17.774 48.879c3.533-21.657 9.372-41.157 17.261-57.137 1.249-2.531 2.554-4.963 3.898-7.316z"/><path d="m256 344c-56.692 0-78.264 71.5-79.9 136h159.8c-1.636-64.5-23.208-136-79.9-136z"/><path d="m57.453 57.487c-15.308 25.159-12.209 59.352 9.292 80.854 12.088 12.089 28.547 18.746 46.343 18.746a66.193 66.193 0 0 0 34.511-9.453 141.489 141.489 0 0 1 -55.582-34.565 141.475 141.475 0 0 1 -34.564-55.582z"/><path d="m176 48h-5.754l-2.485-9.94a8 8 0 0 0 -15.522 0l-2.485 9.94h-5.754a8 8 0 0 0 0 16h1.754l-1.515 6.06a8 8 0 0 0 15.522 3.88l.239-.956.239.956a8 8 0 0 0 15.522-3.88l-1.515-6.06h1.754a8 8 0 0 0 0-16z"/><path d="m80 216h-5.754l-2.485-9.94a8 8 0 0 0 -15.522 0l-2.485 9.94h-5.754a8 8 0 0 0 0 16h1.754l-1.515 6.06a8 8 0 1 0 15.522 3.88l.239-.956.239.956a8 8 0 0 0 15.522-3.88l-1.515-6.06h1.754a8 8 0 0 0 0-16z"/></svg>